# xmcd
#
# Track frame offsets:
#	150
#	16400
#	32765
#	47505
#	65325
#	79635
#	94835
#	110175
#	126590
#	141680
#	156800
#	169220
#	184100
#	201055
#	215930
#	227435
#	243420
#	262235
#	278220
#	292505
#
# Disc length: 4112 seconds
#
# Revision: 3
# Processed by: cddbd v1.5.2PL0 Copyright (c) Steve Scherf et al.
# Submitted via: audiograbber 1.83.01
#
DISCID=2e100e14
DTITLE=Various Artist - MM Country Club Pack 2 Disc 3
DYEAR=1900
DGENRE=Karaoke
TTITLE0=Tim McGraw - Just To See You Smile
TTITLE1=Shania Twain - Any Man Of Mine
TTITLE2=Diamond Rio - Imagine That
TTITLE3=Chely Wright - Shut Up And Drive
TTITLE4=Alan Jackson - Don't Rock The Jukebox
TTITLE5=Tanya Tucker - If Your Heart Ain't Busy Tonight
TTITLE6=Mark Chestnutt - Thank God For Believers
TTITLE7=LeAnn Rimes - One Way Ticket
TTITLE8=Mickey Gilley - Don't The Girls All Get Prettier At Closing Time
TTITLE9=Bryan White - Love Is The Right Place
TTITLE10=Elvis Presley - Way Down
TTITLE11=Travis Tritt - She's Going Home With Me
TTITLE12=Michael Peterson - From Here To Eternity
TTITLE13=Clay Walker - Watch This
TTITLE14=Patsy Cline - Walkin' After Midnight
TTITLE15=Ty Herndon - I Have To Surrender
TTITLE16=Patty Loveless - You Don't Seem To Miss Me
TTITLE17=Travis Tritt - Still In Love With You
TTITLE18=George Strait - Round About Way
TTITLE19=Wade Hayes - The Day She Left Tulsa
EXTD=
EXTT0=
EXTT1=
EXTT2=
EXTT3=
EXTT4=
EXTT5=
EXTT6=
EXTT7=
EXTT8=
EXTT9=
EXTT10=
EXTT11=
EXTT12=
EXTT13=
EXTT14=
EXTT15=
EXTT16=
EXTT17=
EXTT18=
EXTT19=
PLAYORDER=
